M48
; DRILL file {KiCad 9.0.4} date 2025-11-19T11:43:05-0700
; FORMAT={-:-/ absolute / metric / decimal}
; #@! TF.CreationDate,2025-11-19T11:43:05-07:00
; #@! TF.GenerationSoftware,Kicad,Pcbnew,9.0.4
; #@! TF.FileFunction,Plated,1,2,PTH
FMAT,2
METRIC
; #@! TA.AperFunction,Plated,PTH,ComponentDrill
T1C0.800
; #@! TA.AperFunction,Plated,PTH,ComponentDrill
T2C0.900
; #@! TA.AperFunction,Plated,PTH,ComponentDrill
T3C1.000
; #@! TA.AperFunction,Plated,PTH,ComponentDrill
T4C1.016
; #@! TA.AperFunction,Plated,PTH,ComponentDrill
T5C1.100
; #@! TA.AperFunction,Plated,PTH,ComponentDrill
T6C1.500
; #@! TA.AperFunction,Plated,PTH,ComponentDrill
T7C1.600
%
G90
G05
T1
X106.68Y-133.35
X106.68Y-146.05
X111.76Y-69.85
X114.3Y-104.14
X119.3Y-104.14
X124.46Y-69.85
X128.27Y-137.16
X130.81Y-69.85
X135.81Y-69.85
X140.97Y-137.16
X141.05Y-77.47
X146.05Y-77.47
X165.1Y-64.77
X177.8Y-64.77
X179.07Y-71.12
X179.07Y-83.82
X180.34Y-57.15
X182.88Y-102.87
X182.88Y-115.57
X184.15Y-71.12
X184.15Y-83.82
X187.96Y-105.41
X187.96Y-118.11
X191.77Y-73.66
X191.77Y-86.36
X193.04Y-57.15
X193.04Y-100.33
X193.04Y-113.03
X196.85Y-73.66
X196.85Y-86.36
X198.12Y-100.33
X198.12Y-113.03
T2
X121.92Y-137.16
X124.46Y-137.16
T3
X105.41Y-82.555
X105.41Y-85.095
X105.41Y-107.95
X105.41Y-125.73
X106.68Y-91.44
X106.68Y-93.98
X106.68Y-96.52
X106.68Y-99.06
X106.68Y-129.54
X107.95Y-69.85
X107.95Y-82.555
X107.95Y-85.095
X107.95Y-107.95
X107.95Y-125.73
X109.22Y-91.44
X109.22Y-93.98
X109.22Y-96.52
X109.22Y-99.06
X110.49Y-82.555
X110.49Y-85.095
X110.49Y-107.95
X110.49Y-125.73
X113.03Y-82.555
X113.03Y-85.095
X113.03Y-107.95
X113.03Y-125.73
X115.57Y-107.95
X115.57Y-125.73
X116.84Y-144.78
X118.11Y-107.95
X118.11Y-125.73
X120.65Y-107.95
X120.65Y-125.73
X121.92Y-96.52
X121.92Y-144.78
X123.19Y-107.95
X123.19Y-125.73
X124.46Y-101.6
X125.73Y-107.95
X125.73Y-125.73
X127.0Y-101.6
X128.27Y-107.95
X128.27Y-125.73
X129.54Y-101.6
X130.81Y-107.95
X130.81Y-125.73
X132.08Y-101.6
X133.35Y-107.95
X133.35Y-125.73
X135.89Y-107.95
X135.89Y-125.73
X137.16Y-96.52
X138.43Y-107.95
X138.43Y-125.73
X138.43Y-131.868
X140.97Y-69.85
X140.97Y-107.95
X140.97Y-125.73
X142.282Y-141.147
X142.4Y-144.78
X143.51Y-69.85
X143.51Y-107.95
X143.51Y-125.73
X143.555Y-132.08
X146.05Y-69.85
X146.05Y-107.95
X146.05Y-125.73
X147.32Y-104.14
X147.4Y-144.78
X148.59Y-107.95
X148.59Y-125.73
X151.13Y-59.69
X151.13Y-69.85
X151.13Y-107.95
X151.13Y-125.73
X152.4Y-139.7
X152.4Y-144.78
X153.67Y-107.95
X153.67Y-125.73
X156.21Y-107.95
X156.21Y-125.73
X158.75Y-107.95
X158.75Y-125.73
X161.29Y-107.95
X161.29Y-125.73
X163.83Y-107.95
X163.83Y-125.73
X165.1Y-134.62
X166.37Y-107.95
X166.37Y-125.73
X167.64Y-134.62
X168.91Y-107.95
X168.91Y-125.73
X170.18Y-134.62
X171.45Y-107.95
X171.45Y-125.73
X172.72Y-104.14
X172.72Y-134.62
X173.99Y-69.85
X173.99Y-80.01
X173.99Y-107.95
X173.99Y-125.73
X179.07Y-92.71
X179.07Y-95.25
X181.61Y-64.77
X181.61Y-92.71
X181.61Y-95.25
X184.15Y-87.63
X184.15Y-92.71
X184.15Y-95.25
X186.69Y-92.71
X186.69Y-95.25
X187.96Y-137.16
X189.23Y-92.71
X189.23Y-95.25
X189.23Y-100.33
X191.77Y-69.85
X191.77Y-92.71
X191.77Y-95.25
X194.31Y-64.77
X194.31Y-92.71
X194.31Y-95.25
X195.58Y-137.16
X195.58Y-139.7
X195.58Y-142.24
X195.58Y-144.78
X196.85Y-90.17
X198.12Y-137.16
X198.12Y-139.7
X198.12Y-142.24
X198.12Y-144.78
T4
X185.83Y-64.77
X189.23Y-64.77
T5
X111.05Y-134.91
X111.05Y-139.41
X117.55Y-134.91
X117.55Y-139.41
T6
X124.59Y-59.69
X147.19Y-59.69
T7
X113.23Y-58.94
X116.23Y-63.64
X119.23Y-58.94
M30
