%TF.GenerationSoftware,KiCad,Pcbnew,9.0.4*%
%TF.CreationDate,2025-11-19T11:43:12-07:00*%
%TF.ProjectId,Individual-subsystem,496e6469-7669-4647-9561-6c2d73756273,rev?*%
%TF.SameCoordinates,Original*%
%TF.FileFunction,Legend,Top*%
%TF.FilePolarity,Positive*%
%FSLAX46Y46*%
G04 Gerber Fmt 4.6, Leading zero omitted, Abs format (unit mm)*
G04 Created by KiCad (PCBNEW 9.0.4) date 2025-11-19 11:43:12*
%MOMM*%
%LPD*%
G01*
G04 APERTURE LIST*
%ADD10C,0.150000*%
%ADD11C,0.120000*%
G04 APERTURE END LIST*
D10*
X151496666Y-61644819D02*
X151496666Y-62359104D01*
X151496666Y-62359104D02*
X151449047Y-62501961D01*
X151449047Y-62501961D02*
X151353809Y-62597200D01*
X151353809Y-62597200D02*
X151210952Y-62644819D01*
X151210952Y-62644819D02*
X151115714Y-62644819D01*
X151877619Y-61644819D02*
X152496666Y-61644819D01*
X152496666Y-61644819D02*
X152163333Y-62025771D01*
X152163333Y-62025771D02*
X152306190Y-62025771D01*
X152306190Y-62025771D02*
X152401428Y-62073390D01*
X152401428Y-62073390D02*
X152449047Y-62121009D01*
X152449047Y-62121009D02*
X152496666Y-62216247D01*
X152496666Y-62216247D02*
X152496666Y-62454342D01*
X152496666Y-62454342D02*
X152449047Y-62549580D01*
X152449047Y-62549580D02*
X152401428Y-62597200D01*
X152401428Y-62597200D02*
X152306190Y-62644819D01*
X152306190Y-62644819D02*
X152020476Y-62644819D01*
X152020476Y-62644819D02*
X151925238Y-62597200D01*
X151925238Y-62597200D02*
X151877619Y-62549580D01*
X110446666Y-64144819D02*
X110446666Y-64859104D01*
X110446666Y-64859104D02*
X110399047Y-65001961D01*
X110399047Y-65001961D02*
X110303809Y-65097200D01*
X110303809Y-65097200D02*
X110160952Y-65144819D01*
X110160952Y-65144819D02*
X110065714Y-65144819D01*
X111446666Y-65144819D02*
X110875238Y-65144819D01*
X111160952Y-65144819D02*
X111160952Y-64144819D01*
X111160952Y-64144819D02*
X111065714Y-64287676D01*
X111065714Y-64287676D02*
X110970476Y-64382914D01*
X110970476Y-64382914D02*
X110875238Y-64430533D01*
X171283333Y-67944819D02*
X170950000Y-67468628D01*
X170711905Y-67944819D02*
X170711905Y-66944819D01*
X170711905Y-66944819D02*
X171092857Y-66944819D01*
X171092857Y-66944819D02*
X171188095Y-66992438D01*
X171188095Y-66992438D02*
X171235714Y-67040057D01*
X171235714Y-67040057D02*
X171283333Y-67135295D01*
X171283333Y-67135295D02*
X171283333Y-67278152D01*
X171283333Y-67278152D02*
X171235714Y-67373390D01*
X171235714Y-67373390D02*
X171188095Y-67421009D01*
X171188095Y-67421009D02*
X171092857Y-67468628D01*
X171092857Y-67468628D02*
X170711905Y-67468628D01*
X171616667Y-66944819D02*
X172283333Y-66944819D01*
X172283333Y-66944819D02*
X171854762Y-67944819D01*
X117943333Y-73024819D02*
X117610000Y-72548628D01*
X117371905Y-73024819D02*
X117371905Y-72024819D01*
X117371905Y-72024819D02*
X117752857Y-72024819D01*
X117752857Y-72024819D02*
X117848095Y-72072438D01*
X117848095Y-72072438D02*
X117895714Y-72120057D01*
X117895714Y-72120057D02*
X117943333Y-72215295D01*
X117943333Y-72215295D02*
X117943333Y-72358152D01*
X117943333Y-72358152D02*
X117895714Y-72453390D01*
X117895714Y-72453390D02*
X117848095Y-72501009D01*
X117848095Y-72501009D02*
X117752857Y-72548628D01*
X117752857Y-72548628D02*
X117371905Y-72548628D01*
X118895714Y-73024819D02*
X118324286Y-73024819D01*
X118610000Y-73024819D02*
X118610000Y-72024819D01*
X118610000Y-72024819D02*
X118514762Y-72167676D01*
X118514762Y-72167676D02*
X118419524Y-72262914D01*
X118419524Y-72262914D02*
X118324286Y-72310533D01*
X151496666Y-71804819D02*
X151496666Y-72519104D01*
X151496666Y-72519104D02*
X151449047Y-72661961D01*
X151449047Y-72661961D02*
X151353809Y-72757200D01*
X151353809Y-72757200D02*
X151210952Y-72804819D01*
X151210952Y-72804819D02*
X151115714Y-72804819D01*
X152401428Y-71804819D02*
X152210952Y-71804819D01*
X152210952Y-71804819D02*
X152115714Y-71852438D01*
X152115714Y-71852438D02*
X152068095Y-71900057D01*
X152068095Y-71900057D02*
X151972857Y-72042914D01*
X151972857Y-72042914D02*
X151925238Y-72233390D01*
X151925238Y-72233390D02*
X151925238Y-72614342D01*
X151925238Y-72614342D02*
X151972857Y-72709580D01*
X151972857Y-72709580D02*
X152020476Y-72757200D01*
X152020476Y-72757200D02*
X152115714Y-72804819D01*
X152115714Y-72804819D02*
X152306190Y-72804819D01*
X152306190Y-72804819D02*
X152401428Y-72757200D01*
X152401428Y-72757200D02*
X152449047Y-72709580D01*
X152449047Y-72709580D02*
X152496666Y-72614342D01*
X152496666Y-72614342D02*
X152496666Y-72376247D01*
X152496666Y-72376247D02*
X152449047Y-72281009D01*
X152449047Y-72281009D02*
X152401428Y-72233390D01*
X152401428Y-72233390D02*
X152306190Y-72185771D01*
X152306190Y-72185771D02*
X152115714Y-72185771D01*
X152115714Y-72185771D02*
X152020476Y-72233390D01*
X152020476Y-72233390D02*
X151972857Y-72281009D01*
X151972857Y-72281009D02*
X151925238Y-72376247D01*
X112966667Y-141817200D02*
X113109524Y-141864819D01*
X113109524Y-141864819D02*
X113347619Y-141864819D01*
X113347619Y-141864819D02*
X113442857Y-141817200D01*
X113442857Y-141817200D02*
X113490476Y-141769580D01*
X113490476Y-141769580D02*
X113538095Y-141674342D01*
X113538095Y-141674342D02*
X113538095Y-141579104D01*
X113538095Y-141579104D02*
X113490476Y-141483866D01*
X113490476Y-141483866D02*
X113442857Y-141436247D01*
X113442857Y-141436247D02*
X113347619Y-141388628D01*
X113347619Y-141388628D02*
X113157143Y-141341009D01*
X113157143Y-141341009D02*
X113061905Y-141293390D01*
X113061905Y-141293390D02*
X113014286Y-141245771D01*
X113014286Y-141245771D02*
X112966667Y-141150533D01*
X112966667Y-141150533D02*
X112966667Y-141055295D01*
X112966667Y-141055295D02*
X113014286Y-140960057D01*
X113014286Y-140960057D02*
X113061905Y-140912438D01*
X113061905Y-140912438D02*
X113157143Y-140864819D01*
X113157143Y-140864819D02*
X113395238Y-140864819D01*
X113395238Y-140864819D02*
X113538095Y-140912438D01*
X113871429Y-140864819D02*
X114109524Y-141864819D01*
X114109524Y-141864819D02*
X114300000Y-141150533D01*
X114300000Y-141150533D02*
X114490476Y-141864819D01*
X114490476Y-141864819D02*
X114728572Y-140864819D01*
X115633333Y-141864819D02*
X115061905Y-141864819D01*
X115347619Y-141864819D02*
X115347619Y-140864819D01*
X115347619Y-140864819D02*
X115252381Y-141007676D01*
X115252381Y-141007676D02*
X115157143Y-141102914D01*
X115157143Y-141102914D02*
X115061905Y-141150533D01*
X106134819Y-117601904D02*
X106944342Y-117601904D01*
X106944342Y-117601904D02*
X107039580Y-117554285D01*
X107039580Y-117554285D02*
X107087200Y-117506666D01*
X107087200Y-117506666D02*
X107134819Y-117411428D01*
X107134819Y-117411428D02*
X107134819Y-117220952D01*
X107134819Y-117220952D02*
X107087200Y-117125714D01*
X107087200Y-117125714D02*
X107039580Y-117078095D01*
X107039580Y-117078095D02*
X106944342Y-117030476D01*
X106944342Y-117030476D02*
X106134819Y-117030476D01*
X106230057Y-116601904D02*
X106182438Y-116554285D01*
X106182438Y-116554285D02*
X106134819Y-116459047D01*
X106134819Y-116459047D02*
X106134819Y-116220952D01*
X106134819Y-116220952D02*
X106182438Y-116125714D01*
X106182438Y-116125714D02*
X106230057Y-116078095D01*
X106230057Y-116078095D02*
X106325295Y-116030476D01*
X106325295Y-116030476D02*
X106420533Y-116030476D01*
X106420533Y-116030476D02*
X106563390Y-116078095D01*
X106563390Y-116078095D02*
X107134819Y-116649523D01*
X107134819Y-116649523D02*
X107134819Y-116030476D01*
X142748095Y-71704819D02*
X142748095Y-72514342D01*
X142748095Y-72514342D02*
X142795714Y-72609580D01*
X142795714Y-72609580D02*
X142843333Y-72657200D01*
X142843333Y-72657200D02*
X142938571Y-72704819D01*
X142938571Y-72704819D02*
X143129047Y-72704819D01*
X143129047Y-72704819D02*
X143224285Y-72657200D01*
X143224285Y-72657200D02*
X143271904Y-72609580D01*
X143271904Y-72609580D02*
X143319523Y-72514342D01*
X143319523Y-72514342D02*
X143319523Y-71704819D01*
X144319523Y-72704819D02*
X143748095Y-72704819D01*
X144033809Y-72704819D02*
X144033809Y-71704819D01*
X144033809Y-71704819D02*
X143938571Y-71847676D01*
X143938571Y-71847676D02*
X143843333Y-71942914D01*
X143843333Y-71942914D02*
X143748095Y-71990533D01*
X143383333Y-80679580D02*
X143335714Y-80727200D01*
X143335714Y-80727200D02*
X143192857Y-80774819D01*
X143192857Y-80774819D02*
X143097619Y-80774819D01*
X143097619Y-80774819D02*
X142954762Y-80727200D01*
X142954762Y-80727200D02*
X142859524Y-80631961D01*
X142859524Y-80631961D02*
X142811905Y-80536723D01*
X142811905Y-80536723D02*
X142764286Y-80346247D01*
X142764286Y-80346247D02*
X142764286Y-80203390D01*
X142764286Y-80203390D02*
X142811905Y-80012914D01*
X142811905Y-80012914D02*
X142859524Y-79917676D01*
X142859524Y-79917676D02*
X142954762Y-79822438D01*
X142954762Y-79822438D02*
X143097619Y-79774819D01*
X143097619Y-79774819D02*
X143192857Y-79774819D01*
X143192857Y-79774819D02*
X143335714Y-79822438D01*
X143335714Y-79822438D02*
X143383333Y-79870057D01*
X143764286Y-79870057D02*
X143811905Y-79822438D01*
X143811905Y-79822438D02*
X143907143Y-79774819D01*
X143907143Y-79774819D02*
X144145238Y-79774819D01*
X144145238Y-79774819D02*
X144240476Y-79822438D01*
X144240476Y-79822438D02*
X144288095Y-79870057D01*
X144288095Y-79870057D02*
X144335714Y-79965295D01*
X144335714Y-79965295D02*
X144335714Y-80060533D01*
X144335714Y-80060533D02*
X144288095Y-80203390D01*
X144288095Y-80203390D02*
X143716667Y-80774819D01*
X143716667Y-80774819D02*
X144335714Y-80774819D01*
X122451905Y-134654819D02*
X122451905Y-133654819D01*
X122451905Y-133654819D02*
X122690000Y-133654819D01*
X122690000Y-133654819D02*
X122832857Y-133702438D01*
X122832857Y-133702438D02*
X122928095Y-133797676D01*
X122928095Y-133797676D02*
X122975714Y-133892914D01*
X122975714Y-133892914D02*
X123023333Y-134083390D01*
X123023333Y-134083390D02*
X123023333Y-134226247D01*
X123023333Y-134226247D02*
X122975714Y-134416723D01*
X122975714Y-134416723D02*
X122928095Y-134511961D01*
X122928095Y-134511961D02*
X122832857Y-134607200D01*
X122832857Y-134607200D02*
X122690000Y-134654819D01*
X122690000Y-134654819D02*
X122451905Y-134654819D01*
X123975714Y-134654819D02*
X123404286Y-134654819D01*
X123690000Y-134654819D02*
X123690000Y-133654819D01*
X123690000Y-133654819D02*
X123594762Y-133797676D01*
X123594762Y-133797676D02*
X123499524Y-133892914D01*
X123499524Y-133892914D02*
X123404286Y-133940533D01*
X108316666Y-71804819D02*
X108316666Y-72519104D01*
X108316666Y-72519104D02*
X108269047Y-72661961D01*
X108269047Y-72661961D02*
X108173809Y-72757200D01*
X108173809Y-72757200D02*
X108030952Y-72804819D01*
X108030952Y-72804819D02*
X107935714Y-72804819D01*
X108745238Y-71900057D02*
X108792857Y-71852438D01*
X108792857Y-71852438D02*
X108888095Y-71804819D01*
X108888095Y-71804819D02*
X109126190Y-71804819D01*
X109126190Y-71804819D02*
X109221428Y-71852438D01*
X109221428Y-71852438D02*
X109269047Y-71900057D01*
X109269047Y-71900057D02*
X109316666Y-71995295D01*
X109316666Y-71995295D02*
X109316666Y-72090533D01*
X109316666Y-72090533D02*
X109269047Y-72233390D01*
X109269047Y-72233390D02*
X108697619Y-72804819D01*
X108697619Y-72804819D02*
X109316666Y-72804819D01*
X135606666Y-65621009D02*
X135273333Y-65621009D01*
X135273333Y-66144819D02*
X135273333Y-65144819D01*
X135273333Y-65144819D02*
X135749523Y-65144819D01*
X136654285Y-66144819D02*
X136082857Y-66144819D01*
X136368571Y-66144819D02*
X136368571Y-65144819D01*
X136368571Y-65144819D02*
X136273333Y-65287676D01*
X136273333Y-65287676D02*
X136178095Y-65382914D01*
X136178095Y-65382914D02*
X136082857Y-65430533D01*
X126190476Y-144234819D02*
X126190476Y-144949104D01*
X126190476Y-144949104D02*
X126142857Y-145091961D01*
X126142857Y-145091961D02*
X126047619Y-145187200D01*
X126047619Y-145187200D02*
X125904762Y-145234819D01*
X125904762Y-145234819D02*
X125809524Y-145234819D01*
X127190476Y-145234819D02*
X126619048Y-145234819D01*
X126904762Y-145234819D02*
X126904762Y-144234819D01*
X126904762Y-144234819D02*
X126809524Y-144377676D01*
X126809524Y-144377676D02*
X126714286Y-144472914D01*
X126714286Y-144472914D02*
X126619048Y-144520533D01*
X128047619Y-144234819D02*
X127857143Y-144234819D01*
X127857143Y-144234819D02*
X127761905Y-144282438D01*
X127761905Y-144282438D02*
X127714286Y-144330057D01*
X127714286Y-144330057D02*
X127619048Y-144472914D01*
X127619048Y-144472914D02*
X127571429Y-144663390D01*
X127571429Y-144663390D02*
X127571429Y-145044342D01*
X127571429Y-145044342D02*
X127619048Y-145139580D01*
X127619048Y-145139580D02*
X127666667Y-145187200D01*
X127666667Y-145187200D02*
X127761905Y-145234819D01*
X127761905Y-145234819D02*
X127952381Y-145234819D01*
X127952381Y-145234819D02*
X128047619Y-145187200D01*
X128047619Y-145187200D02*
X128095238Y-145139580D01*
X128095238Y-145139580D02*
X128142857Y-145044342D01*
X128142857Y-145044342D02*
X128142857Y-144806247D01*
X128142857Y-144806247D02*
X128095238Y-144711009D01*
X128095238Y-144711009D02*
X128047619Y-144663390D01*
X128047619Y-144663390D02*
X127952381Y-144615771D01*
X127952381Y-144615771D02*
X127761905Y-144615771D01*
X127761905Y-144615771D02*
X127666667Y-144663390D01*
X127666667Y-144663390D02*
X127619048Y-144711009D01*
X127619048Y-144711009D02*
X127571429Y-144806247D01*
X134453333Y-134894819D02*
X134120000Y-134418628D01*
X133881905Y-134894819D02*
X133881905Y-133894819D01*
X133881905Y-133894819D02*
X134262857Y-133894819D01*
X134262857Y-133894819D02*
X134358095Y-133942438D01*
X134358095Y-133942438D02*
X134405714Y-133990057D01*
X134405714Y-133990057D02*
X134453333Y-134085295D01*
X134453333Y-134085295D02*
X134453333Y-134228152D01*
X134453333Y-134228152D02*
X134405714Y-134323390D01*
X134405714Y-134323390D02*
X134358095Y-134371009D01*
X134358095Y-134371009D02*
X134262857Y-134418628D01*
X134262857Y-134418628D02*
X133881905Y-134418628D01*
X134786667Y-133894819D02*
X135405714Y-133894819D01*
X135405714Y-133894819D02*
X135072381Y-134275771D01*
X135072381Y-134275771D02*
X135215238Y-134275771D01*
X135215238Y-134275771D02*
X135310476Y-134323390D01*
X135310476Y-134323390D02*
X135358095Y-134371009D01*
X135358095Y-134371009D02*
X135405714Y-134466247D01*
X135405714Y-134466247D02*
X135405714Y-134704342D01*
X135405714Y-134704342D02*
X135358095Y-134799580D01*
X135358095Y-134799580D02*
X135310476Y-134847200D01*
X135310476Y-134847200D02*
X135215238Y-134894819D01*
X135215238Y-134894819D02*
X134929524Y-134894819D01*
X134929524Y-134894819D02*
X134834286Y-134847200D01*
X134834286Y-134847200D02*
X134786667Y-134799580D01*
X133143333Y-73059580D02*
X133095714Y-73107200D01*
X133095714Y-73107200D02*
X132952857Y-73154819D01*
X132952857Y-73154819D02*
X132857619Y-73154819D01*
X132857619Y-73154819D02*
X132714762Y-73107200D01*
X132714762Y-73107200D02*
X132619524Y-73011961D01*
X132619524Y-73011961D02*
X132571905Y-72916723D01*
X132571905Y-72916723D02*
X132524286Y-72726247D01*
X132524286Y-72726247D02*
X132524286Y-72583390D01*
X132524286Y-72583390D02*
X132571905Y-72392914D01*
X132571905Y-72392914D02*
X132619524Y-72297676D01*
X132619524Y-72297676D02*
X132714762Y-72202438D01*
X132714762Y-72202438D02*
X132857619Y-72154819D01*
X132857619Y-72154819D02*
X132952857Y-72154819D01*
X132952857Y-72154819D02*
X133095714Y-72202438D01*
X133095714Y-72202438D02*
X133143333Y-72250057D01*
X134095714Y-73154819D02*
X133524286Y-73154819D01*
X133810000Y-73154819D02*
X133810000Y-72154819D01*
X133810000Y-72154819D02*
X133714762Y-72297676D01*
X133714762Y-72297676D02*
X133619524Y-72392914D01*
X133619524Y-72392914D02*
X133524286Y-72440533D01*
X174944819Y-134953333D02*
X175659104Y-134953333D01*
X175659104Y-134953333D02*
X175801961Y-135000952D01*
X175801961Y-135000952D02*
X175897200Y-135096190D01*
X175897200Y-135096190D02*
X175944819Y-135239047D01*
X175944819Y-135239047D02*
X175944819Y-135334285D01*
X175373390Y-134334285D02*
X175325771Y-134429523D01*
X175325771Y-134429523D02*
X175278152Y-134477142D01*
X175278152Y-134477142D02*
X175182914Y-134524761D01*
X175182914Y-134524761D02*
X175135295Y-134524761D01*
X175135295Y-134524761D02*
X175040057Y-134477142D01*
X175040057Y-134477142D02*
X174992438Y-134429523D01*
X174992438Y-134429523D02*
X174944819Y-134334285D01*
X174944819Y-134334285D02*
X174944819Y-134143809D01*
X174944819Y-134143809D02*
X174992438Y-134048571D01*
X174992438Y-134048571D02*
X175040057Y-134000952D01*
X175040057Y-134000952D02*
X175135295Y-133953333D01*
X175135295Y-133953333D02*
X175182914Y-133953333D01*
X175182914Y-133953333D02*
X175278152Y-134000952D01*
X175278152Y-134000952D02*
X175325771Y-134048571D01*
X175325771Y-134048571D02*
X175373390Y-134143809D01*
X175373390Y-134143809D02*
X175373390Y-134334285D01*
X175373390Y-134334285D02*
X175421009Y-134429523D01*
X175421009Y-134429523D02*
X175468628Y-134477142D01*
X175468628Y-134477142D02*
X175563866Y-134524761D01*
X175563866Y-134524761D02*
X175754342Y-134524761D01*
X175754342Y-134524761D02*
X175849580Y-134477142D01*
X175849580Y-134477142D02*
X175897200Y-134429523D01*
X175897200Y-134429523D02*
X175944819Y-134334285D01*
X175944819Y-134334285D02*
X175944819Y-134143809D01*
X175944819Y-134143809D02*
X175897200Y-134048571D01*
X175897200Y-134048571D02*
X175849580Y-134000952D01*
X175849580Y-134000952D02*
X175754342Y-133953333D01*
X175754342Y-133953333D02*
X175563866Y-133953333D01*
X175563866Y-133953333D02*
X175468628Y-134000952D01*
X175468628Y-134000952D02*
X175421009Y-134048571D01*
X175421009Y-134048571D02*
X175373390Y-134143809D01*
D11*
%TO.C,J3*%
X152630000Y-59690000D02*
G75*
G02*
X149630000Y-59690000I-1500000J0D01*
G01*
X149630000Y-59690000D02*
G75*
G02*
X152630000Y-59690000I1500000J0D01*
G01*
%TO.C,J20*%
X193270000Y-69850000D02*
G75*
G02*
X190270000Y-69850000I-1500000J0D01*
G01*
X190270000Y-69850000D02*
G75*
G02*
X193270000Y-69850000I1500000J0D01*
G01*
%TO.C,R12*%
X198120000Y-101370000D02*
X198120000Y-102060000D01*
X198120000Y-111990000D02*
X198120000Y-111300000D01*
X199840000Y-102060000D02*
X196400000Y-102060000D01*
X196400000Y-111300000D01*
X199840000Y-111300000D01*
X199840000Y-102060000D01*
%TO.C,J1*%
X105430000Y-54340000D02*
X120030000Y-54340000D01*
X105430000Y-63540000D02*
X105430000Y-54340000D01*
X114430000Y-63540000D02*
X105430000Y-63540000D01*
X118530000Y-54100000D02*
X120270000Y-54100000D01*
X120030000Y-54340000D02*
X120030000Y-57140000D01*
X120030000Y-60740000D02*
X120030000Y-63540000D01*
X120030000Y-63540000D02*
X118030000Y-63540000D01*
X120270000Y-54100000D02*
X120270000Y-55840000D01*
%TO.C,J7*%
X123420000Y-96520000D02*
G75*
G02*
X120420000Y-96520000I-1500000J0D01*
G01*
X120420000Y-96520000D02*
G75*
G02*
X123420000Y-96520000I1500000J0D01*
G01*
%TO.C,J24*%
X143782441Y-141146585D02*
G75*
G02*
X140782441Y-141146585I-1500000J0D01*
G01*
X140782441Y-141146585D02*
G75*
G02*
X143782441Y-141146585I1500000J0D01*
G01*
%TO.C,R7*%
X166140000Y-64770000D02*
X166830000Y-64770000D01*
X176760000Y-64770000D02*
X176070000Y-64770000D01*
X176070000Y-66490000D02*
X166830000Y-66490000D01*
X166830000Y-63050000D01*
X176070000Y-63050000D01*
X176070000Y-66490000D01*
%TO.C,R1*%
X112800000Y-69850000D02*
X113490000Y-69850000D01*
X123420000Y-69850000D02*
X122730000Y-69850000D01*
X122730000Y-71570000D02*
X113490000Y-71570000D01*
X113490000Y-68130000D01*
X122730000Y-68130000D01*
X122730000Y-71570000D01*
%TO.C,J6*%
X152630000Y-69850000D02*
G75*
G02*
X149630000Y-69850000I-1500000J0D01*
G01*
X149630000Y-69850000D02*
G75*
G02*
X152630000Y-69850000I1500000J0D01*
G01*
%TO.C,R10*%
X181380000Y-57150000D02*
X182070000Y-57150000D01*
X192000000Y-57150000D02*
X191310000Y-57150000D01*
X191310000Y-58870000D02*
X182070000Y-58870000D01*
X182070000Y-55430000D01*
X191310000Y-55430000D01*
X191310000Y-58870000D01*
%TO.C,C3*%
X114130000Y-102420000D02*
X119470000Y-102420000D01*
X114130000Y-103114000D02*
X114130000Y-102420000D01*
X114130000Y-105860000D02*
X114130000Y-105166000D01*
X119470000Y-102420000D02*
X119470000Y-103114000D01*
X119470000Y-105166000D02*
X119470000Y-105860000D01*
X119470000Y-105860000D02*
X114130000Y-105860000D01*
%TO.C,R2*%
X106680000Y-134390000D02*
X106680000Y-135080000D01*
X106680000Y-145010000D02*
X106680000Y-144320000D01*
X108400000Y-135080000D02*
X104960000Y-135080000D01*
X104960000Y-144320000D01*
X108400000Y-144320000D01*
X108400000Y-135080000D01*
%TO.C,J21*%
X198350000Y-90170000D02*
G75*
G02*
X195350000Y-90170000I-1500000J0D01*
G01*
X195350000Y-90170000D02*
G75*
G02*
X198350000Y-90170000I1500000J0D01*
G01*
%TO.C,J10*%
X118340000Y-144780000D02*
G75*
G02*
X115340000Y-144780000I-1500000J0D01*
G01*
X115340000Y-144780000D02*
G75*
G02*
X118340000Y-144780000I1500000J0D01*
G01*
%TO.C,J29*%
X123130000Y-100270000D02*
X123130000Y-102930000D01*
X130810000Y-100270000D02*
X123130000Y-100270000D01*
X130810000Y-100270000D02*
X130810000Y-102930000D01*
X130810000Y-102930000D02*
X123130000Y-102930000D01*
X133410000Y-101600000D02*
X133410000Y-102930000D01*
X133410000Y-102930000D02*
X132080000Y-102930000D01*
%TO.C,SW1*%
X110800000Y-136410000D02*
X110800000Y-137910000D01*
X112050000Y-140410000D02*
X116550000Y-140410000D01*
X116550000Y-133910000D02*
X112050000Y-133910000D01*
X117800000Y-137910000D02*
X117800000Y-136410000D01*
%TO.C,U2*%
X104010000Y-106250000D02*
X104010000Y-113310000D01*
X104010000Y-113310000D02*
X104370000Y-113310000D01*
X104010000Y-120369999D02*
X104010000Y-127429999D01*
X104010000Y-127429999D02*
X175390000Y-127430000D01*
X104370000Y-113310000D02*
X104370000Y-120369999D01*
X104370000Y-120369999D02*
X104010000Y-120369999D01*
X175390000Y-106250001D02*
X104010000Y-106250000D01*
X175390000Y-127430000D02*
X175390000Y-106250001D01*
%TO.C,U3*%
X177670000Y-91310000D02*
X177670000Y-96649999D01*
X177670000Y-96649999D02*
X195710000Y-96650000D01*
X195350000Y-93090001D02*
X195710000Y-93090001D01*
X195350000Y-94870000D02*
X195350000Y-93090001D01*
X195710000Y-91310001D02*
X177670000Y-91310000D01*
X195710000Y-93090001D02*
X195710000Y-91310001D01*
X195710000Y-94870000D02*
X195350000Y-94870000D01*
X195710000Y-96650000D02*
X195710000Y-94870000D01*
%TO.C,J9*%
X138660000Y-96520000D02*
G75*
G02*
X135660000Y-96520000I-1500000J0D01*
G01*
X135660000Y-96520000D02*
G75*
G02*
X138660000Y-96520000I1500000J0D01*
G01*
%TO.C,J19*%
X183110000Y-64770000D02*
G75*
G02*
X180110000Y-64770000I-1500000J0D01*
G01*
X180110000Y-64770000D02*
G75*
G02*
X183110000Y-64770000I1500000J0D01*
G01*
%TO.C,J22*%
X145055297Y-132080000D02*
G75*
G02*
X142055297Y-132080000I-1500000J0D01*
G01*
X142055297Y-132080000D02*
G75*
G02*
X145055297Y-132080000I1500000J0D01*
G01*
%TO.C,R14*%
X187960000Y-106450000D02*
X187960000Y-107140000D01*
X187960000Y-117070000D02*
X187960000Y-116380000D01*
X189680000Y-107140000D02*
X186240000Y-107140000D01*
X186240000Y-116380000D01*
X189680000Y-116380000D01*
X189680000Y-107140000D01*
%TO.C,U1*%
X139570000Y-68450000D02*
X147450000Y-68450000D01*
X139570000Y-71250000D02*
X139570000Y-68450000D01*
X142240000Y-68450000D02*
X142240000Y-71250000D01*
X147450000Y-68450000D02*
X147450000Y-71250000D01*
X147450000Y-71250000D02*
X139570000Y-71250000D01*
%TO.C,J13*%
X105300000Y-90060000D02*
X106680000Y-90060000D01*
X105300000Y-91440000D02*
X105300000Y-90060000D01*
X105300000Y-92710000D02*
X105300000Y-100440000D01*
X105300000Y-92710000D02*
X107950000Y-92710000D01*
X105300000Y-100440000D02*
X110600000Y-100440000D01*
X107950000Y-90060000D02*
X110600000Y-90060000D01*
X107950000Y-92710000D02*
X107950000Y-90060000D01*
X110600000Y-90060000D02*
X110600000Y-100440000D01*
%TO.C,C2*%
X140880000Y-75750000D02*
X146220000Y-75750000D01*
X140880000Y-76444000D02*
X140880000Y-75750000D01*
X140880000Y-79190000D02*
X140880000Y-78496000D01*
X146220000Y-75750000D02*
X146220000Y-76444000D01*
X146220000Y-78496000D02*
X146220000Y-79190000D01*
X146220000Y-79190000D02*
X140880000Y-79190000D01*
%TO.C,D1*%
X121630000Y-135924000D02*
X121630000Y-136080000D01*
X121630000Y-138240000D02*
X121630000Y-138396000D01*
X121630000Y-135924484D02*
G75*
G02*
X124861437Y-136080000I1560000J-1235516D01*
G01*
X122149039Y-136080000D02*
G75*
G02*
X124230961Y-136080000I1040961J-1080000D01*
G01*
X124230961Y-138240000D02*
G75*
G02*
X122149039Y-138240000I-1040961J1080000D01*
G01*
X124861437Y-138240000D02*
G75*
G02*
X121630000Y-138395516I-1671437J1080000D01*
G01*
%TO.C,J2*%
X109450000Y-69850000D02*
G75*
G02*
X106450000Y-69850000I-1500000J0D01*
G01*
X106450000Y-69850000D02*
G75*
G02*
X109450000Y-69850000I1500000J0D01*
G01*
%TO.C,F1*%
X124590000Y-54890000D02*
X124590000Y-57690000D01*
X124590000Y-61690000D02*
X124590000Y-64490000D01*
X147190000Y-54890000D02*
X124590000Y-54890000D01*
X147190000Y-54890000D02*
X147190000Y-57690000D01*
X147190000Y-61690000D02*
X147190000Y-64490000D01*
X147190000Y-64490000D02*
X124590000Y-64490000D01*
%TO.C,J15*%
X139930000Y-131867548D02*
G75*
G02*
X136930000Y-131867548I-1500000J0D01*
G01*
X136930000Y-131867548D02*
G75*
G02*
X139930000Y-131867548I1500000J0D01*
G01*
%TO.C,R9*%
X196850000Y-74700000D02*
X196850000Y-75390000D01*
X196850000Y-85320000D02*
X196850000Y-84630000D01*
X195130000Y-84630000D02*
X198570000Y-84630000D01*
X198570000Y-75390000D01*
X195130000Y-75390000D01*
X195130000Y-84630000D01*
%TO.C,J12*%
X108180000Y-129540000D02*
G75*
G02*
X105180000Y-129540000I-1500000J0D01*
G01*
X105180000Y-129540000D02*
G75*
G02*
X108180000Y-129540000I1500000J0D01*
G01*
%TO.C,J28*%
X104030000Y-81175000D02*
X114410000Y-81175000D01*
X104030000Y-83825000D02*
X104030000Y-81175000D01*
X104030000Y-86475000D02*
X104030000Y-85095000D01*
X105410000Y-86475000D02*
X104030000Y-86475000D01*
X106680000Y-83825000D02*
X104030000Y-83825000D01*
X106680000Y-86475000D02*
X106680000Y-83825000D01*
X106680000Y-86475000D02*
X114410000Y-86475000D01*
X114410000Y-86475000D02*
X114410000Y-81175000D01*
%TO.C,R11*%
X193040000Y-101370000D02*
X193040000Y-102060000D01*
X193040000Y-111990000D02*
X193040000Y-111300000D01*
X194760000Y-102060000D02*
X191320000Y-102060000D01*
X191320000Y-111300000D01*
X194760000Y-111300000D01*
X194760000Y-102060000D01*
%TO.C,J16*%
X123420000Y-144780000D02*
G75*
G02*
X120420000Y-144780000I-1500000J0D01*
G01*
X120420000Y-144780000D02*
G75*
G02*
X123420000Y-144780000I1500000J0D01*
G01*
%TO.C,J26*%
X175490000Y-80010000D02*
G75*
G02*
X172490000Y-80010000I-1500000J0D01*
G01*
X172490000Y-80010000D02*
G75*
G02*
X175490000Y-80010000I1500000J0D01*
G01*
%TO.C,J5*%
X189460000Y-137160000D02*
G75*
G02*
X186460000Y-137160000I-1500000J0D01*
G01*
X186460000Y-137160000D02*
G75*
G02*
X189460000Y-137160000I1500000J0D01*
G01*
%TO.C,J4*%
X194200000Y-135780000D02*
X195580000Y-135780000D01*
X194200000Y-137160000D02*
X194200000Y-135780000D01*
X194200000Y-138430000D02*
X194200000Y-146160000D01*
X194200000Y-138430000D02*
X196850000Y-138430000D01*
X194200000Y-146160000D02*
X199500000Y-146160000D01*
X196850000Y-135780000D02*
X199500000Y-135780000D01*
X196850000Y-138430000D02*
X196850000Y-135780000D01*
X199500000Y-135780000D02*
X199500000Y-146160000D01*
%TO.C,J18*%
X195810000Y-64770000D02*
G75*
G02*
X192810000Y-64770000I-1500000J0D01*
G01*
X192810000Y-64770000D02*
G75*
G02*
X195810000Y-64770000I1500000J0D01*
G01*
%TO.C,J27*%
X190730000Y-100330000D02*
G75*
G02*
X187730000Y-100330000I-1500000J0D01*
G01*
X187730000Y-100330000D02*
G75*
G02*
X190730000Y-100330000I1500000J0D01*
G01*
%TO.C,J17*%
X185650000Y-87630000D02*
G75*
G02*
X182650000Y-87630000I-1500000J0D01*
G01*
X182650000Y-87630000D02*
G75*
G02*
X185650000Y-87630000I1500000J0D01*
G01*
%TO.C,R3*%
X129310000Y-137160000D02*
X130000000Y-137160000D01*
X139930000Y-137160000D02*
X139240000Y-137160000D01*
X130000000Y-135440000D02*
X139240000Y-135440000D01*
X139240000Y-138880000D01*
X130000000Y-138880000D01*
X130000000Y-135440000D01*
%TO.C,R5*%
X179070000Y-72160000D02*
X179070000Y-72850000D01*
X179070000Y-82780000D02*
X179070000Y-82090000D01*
X180790000Y-72850000D02*
X177350000Y-72850000D01*
X177350000Y-82090000D01*
X180790000Y-82090000D01*
X180790000Y-72850000D01*
%TO.C,J14*%
X148820000Y-104140000D02*
G75*
G02*
X145820000Y-104140000I-1500000J0D01*
G01*
X145820000Y-104140000D02*
G75*
G02*
X148820000Y-104140000I1500000J0D01*
G01*
%TO.C,C1*%
X130640000Y-68130000D02*
X135980000Y-68130000D01*
X130640000Y-68824000D02*
X130640000Y-68130000D01*
X130640000Y-71570000D02*
X130640000Y-70876000D01*
X135980000Y-68130000D02*
X135980000Y-68824000D01*
X135980000Y-70876000D02*
X135980000Y-71570000D01*
X135980000Y-71570000D02*
X130640000Y-71570000D01*
%TO.C,J23*%
X153900000Y-139700000D02*
G75*
G02*
X150900000Y-139700000I-1500000J0D01*
G01*
X150900000Y-139700000D02*
G75*
G02*
X153900000Y-139700000I1500000J0D01*
G01*
%TO.C,J11*%
X174220000Y-104140000D02*
G75*
G02*
X171220000Y-104140000I-1500000J0D01*
G01*
X171220000Y-104140000D02*
G75*
G02*
X174220000Y-104140000I1500000J0D01*
G01*
%TO.C,J8*%
X163770000Y-133290000D02*
X163770000Y-135950000D01*
X171450000Y-133290000D02*
X163770000Y-133290000D01*
X171450000Y-133290000D02*
X171450000Y-135950000D01*
X171450000Y-135950000D02*
X163770000Y-135950000D01*
X174050000Y-134620000D02*
X174050000Y-135950000D01*
X174050000Y-135950000D02*
X172720000Y-135950000D01*
%TO.C,RV1*%
X140650000Y-143330000D02*
X154150000Y-143330000D01*
X140650000Y-146230000D02*
X140650000Y-143330000D01*
X144900000Y-143330000D02*
X144900000Y-146230000D01*
X154150000Y-143330000D02*
X154150000Y-146230000D01*
X154150000Y-146230000D02*
X140650000Y-146230000D01*
%TO.C,J25*%
X175490000Y-69850000D02*
G75*
G02*
X172490000Y-69850000I-1500000J0D01*
G01*
X172490000Y-69850000D02*
G75*
G02*
X175490000Y-69850000I1500000J0D01*
G01*
%TO.C,R4*%
X184150000Y-72160000D02*
X184150000Y-72850000D01*
X184150000Y-82780000D02*
X184150000Y-82090000D01*
X182430000Y-82090000D02*
X185870000Y-82090000D01*
X185870000Y-72850000D01*
X182430000Y-72850000D01*
X182430000Y-82090000D01*
%TO.C,R13*%
X182880000Y-103910000D02*
X182880000Y-104600000D01*
X182880000Y-114530000D02*
X182880000Y-113840000D01*
X184600000Y-104600000D02*
X181160000Y-104600000D01*
X181160000Y-113840000D01*
X184600000Y-113840000D01*
X184600000Y-104600000D01*
%TO.C,R8*%
X191770000Y-74700000D02*
X191770000Y-75390000D01*
X191770000Y-85320000D02*
X191770000Y-84630000D01*
X193490000Y-75390000D02*
X190050000Y-75390000D01*
X190050000Y-84630000D01*
X193490000Y-84630000D01*
X193490000Y-75390000D01*
%TD*%
M02*
